<svg width="14" height="14" viewBox="0 0 14 14" fill="none" xmlns="http://www.w3.org/2000/svg">
<g clip-path="url(#clip0_1_4975)">
<path d="M9.88958 3.45697C9.81157 3.37897 9.71408 3.33997 9.59708 3.33997C9.48007 3.33997 9.37824 3.37897 9.29158 3.45697L3.66258 9.08597L1.23158 6.65497C1.14491 6.56831 1.04308 6.52497 0.926075 6.52497C0.809075 6.52497 0.711575 6.56831 0.633575 6.65497C0.555575 6.74164 0.514408 6.84131 0.510075 6.95397C0.505742 7.06664 0.546908 7.16631 0.633575 7.25297L3.33758 9.95697C3.36358 9.98297 3.40258 10.0068 3.45458 10.0285C3.50658 10.0501 3.55858 10.061 3.61058 10.061C3.66258 10.061 3.71458 10.0501 3.76658 10.0285C3.81858 10.0068 3.85758 9.98297 3.88358 9.95697L9.83757 4.00297C9.94158 3.91631 9.99791 3.82531 10.0066 3.72997C10.0152 3.63464 9.97624 3.54364 9.88958 3.45697Z" fill="white"/>
</g>
<defs>
<clipPath id="clip0_1_4975">
<rect width="13.02" height="13" fill="white" transform="matrix(1 0 0 -1 0.5 13.48)"/>
</clipPath>
</defs>
</svg>
