<svg width="20" height="21" viewBox="0 0 20 21" fill="none" xmlns="http://www.w3.org/2000/svg">
<g clip-path="url(#clip0_1_4105)">
<path d="M15.1078 7.59833H1.43871C1.04137 7.59833 0.719299 7.9204 0.719299 8.31774V12.946C0.719299 17.1115 4.10805 20.5 8.27328 20.5C12.4385 20.5 15.8272 17.1115 15.8272 12.9461V8.31774C15.8272 7.9204 15.5052 7.59833 15.1078 7.59833ZM14.3884 12.9461C14.3884 16.318 11.6452 19.0612 8.27324 19.0612C4.90129 19.0612 2.15817 16.318 2.15817 12.9461V9.0372H14.3884L14.3884 12.9461Z" fill="black"/>
<path d="M17.0505 10.548H15.1078V11.9868H17.0505C17.7786 11.9868 18.3934 12.6017 18.3934 13.3298C18.3934 14.0578 17.7783 14.6727 17.0505 14.6727H14.6282V16.1116H17.0505C18.5843 16.1116 19.8323 14.8638 19.8323 13.3298C19.8323 11.7957 18.5843 10.548 17.0505 10.548Z" fill="black"/>
<path d="M8.27328 0.5C7.87593 0.5 7.55386 0.82207 7.55386 1.21941V4.64867C7.55386 5.04602 7.87593 5.36809 8.27328 5.36809C8.67062 5.36809 8.99269 5.04602 8.99269 4.64867V1.21941C8.99269 0.82207 8.67062 0.5 8.27328 0.5Z" fill="black"/>
<path d="M11.7025 1.65109C11.3052 1.65109 10.9831 1.97316 10.9831 2.37051V5.79976C10.9831 6.19711 11.3052 6.51918 11.7025 6.51918C12.0999 6.51918 12.4219 6.19711 12.4219 5.79976V2.37051C12.422 1.97312 12.0999 1.65109 11.7025 1.65109Z" fill="black"/>
<path d="M4.84402 1.65109C4.44667 1.65109 4.1246 1.97316 4.1246 2.37051V5.79976C4.1246 6.19711 4.44667 6.51918 4.84402 6.51918C5.24136 6.51918 5.56343 6.19711 5.56343 5.79976V2.37051C5.56343 1.97312 5.24136 1.65109 4.84402 1.65109Z" fill="black"/>
<path d="M15.4675 19.0611H0.8872C0.489856 19.0611 0.167786 19.3832 0.167786 19.7805C0.167786 20.1779 0.489856 20.5 0.8872 20.5H15.4676C15.8649 20.5 16.187 20.1779 16.187 19.7805C16.1869 19.3832 15.8649 19.0611 15.4675 19.0611Z" fill="black"/>
</g>
<defs>
<clipPath id="clip0_1_4105">
<rect width="20" height="20" fill="white" transform="translate(0 0.5)"/>
</clipPath>
</defs>
</svg>
