<svg width="20" height="21" viewBox="0 0 20 21" fill="none" xmlns="http://www.w3.org/2000/svg">
<path d="M15.8202 3.01011H2.50016C2.08682 3.01011 1.70016 3.11011 1.34016 3.31011C0.980156 3.51011 0.69349 3.78344 0.480156 4.13011C0.266823 4.47677 0.160156 4.85677 0.160156 5.27011V15.2701C0.160156 15.6834 0.26349 16.0701 0.470156 16.4301C0.676823 16.7901 0.956823 17.0768 1.31016 17.2901C1.66349 17.5034 2.06016 17.6101 2.50016 17.6101H15.8202C16.2335 17.6101 16.6202 17.5068 16.9802 17.3001C17.3402 17.0934 17.6268 16.8134 17.8402 16.4601C18.0535 16.1068 18.1602 15.7101 18.1602 15.2701V5.27011C18.1602 4.85677 18.0535 4.47677 17.8402 4.13011C17.6268 3.78344 17.3402 3.51011 16.9802 3.31011C16.6202 3.11011 16.2335 3.01011 15.8202 3.01011ZM2.50016 4.27011H15.8202C16.1135 4.27011 16.3535 4.37011 16.5402 4.57011C16.7268 4.77011 16.8202 5.00344 16.8202 5.27011V5.77011L9.66016 10.3501C9.48682 10.4301 9.30682 10.4701 9.12016 10.4701C8.93349 10.4701 8.75349 10.4301 8.58016 10.3501L1.50016 5.77011V5.27011C1.50016 4.97677 1.59349 4.73677 1.78016 4.55011C1.96682 4.36344 2.20682 4.27011 2.50016 4.27011ZM15.8202 16.3501H2.50016C2.22016 16.3501 1.98349 16.2468 1.79016 16.0401C1.59682 15.8334 1.50016 15.6034 1.50016 15.3501V7.27011L8.00016 11.4301C8.28016 11.6568 8.66682 11.7701 9.16016 11.7701C9.65349 11.7701 10.0402 11.6568 10.3202 11.4301L16.8202 7.27011V15.2701C16.8202 15.5634 16.7268 15.8168 16.5402 16.0301C16.3535 16.2434 16.1135 16.3501 15.8202 16.3501Z" fill="#9CA3AF"/>
</svg>
