<svg width="19" height="19" viewBox="0 0 19 19" fill="none" xmlns="http://www.w3.org/2000/svg">
<rect width="19" height="19" fill="#F8F8F8"/>
<g id="Home-3">
<rect width="1920" height="4837.72" transform="translate(3948 -175)" fill="white"/>
</g>
<g id="Home-2">
</g>
<g id="Home-1">
<g id="Header">
<mask id="path-1-inside-1_0_1" fill="white">
<path d="M-301 -134H1619V34H-301V-134Z"/>
</mask>
<path d="M1619 34V33H-301V34V35H1619V34Z" fill="#E5E7EB" mask="url(#path-1-inside-1_0_1)"/>
<g id="21">
<rect width="1920" height="48" transform="translate(-301 -15)" fill="white"/>
<g id="Group 4">
<g id="732">
<path d="M-21 -7C-21 -11.4183 -17.4183 -15 -13 -15H271C275.418 -15 279 -11.4183 279 -7V33H-21V-7Z" fill="white"/>
<g id="i.klb-icon-layout-grid">
<g id="Icon" clip-path="url(#clip0_0_1)">
<path id="Vector" d="M5.83399 2.22801H2.08999C1.70599 2.22801 1.38499 2.34801 1.12699 2.58801C0.86899 2.82801 0.73999 3.13401 0.73999 3.50601V7.25001C0.73999 7.62201 0.87199 7.94001 1.13599 8.20401C1.39999 8.46801 1.71799 8.60001 2.08999 8.60001H5.83399C6.21799 8.60001 6.53899 8.46801 6.79699 8.20401C7.05499 7.94001 7.18399 7.62201 7.18399 7.25001V3.50601C7.18399 3.13401 7.05499 2.82801 6.79699 2.58801C6.53899 2.34801 6.21799 2.22801 5.83399 2.22801ZM5.97799 7.25001C5.97799 7.28601 5.96299 7.31901 5.93299 7.34901C5.90299 7.37901 5.86999 7.39401 5.83399 7.39401H2.08999C2.05399 7.43001 2.01799 7.42701 1.98199 7.38501C1.94599 7.34301 1.92799 7.29801 1.92799 7.25001V3.50601C1.92799 3.45801 1.94599 3.41901 1.98199 3.38901C2.01799 3.35901 2.05399 3.34401 2.08999 3.34401H5.83399C5.86999 3.34401 5.90299 3.35901 5.93299 3.38901C5.96299 3.41901 5.97799 3.45801 5.97799 3.50601V7.25001ZM14.078 2.22801H10.334C9.96199 2.22801 9.64399 2.35701 9.37999 2.61501C9.11599 2.87301 8.98399 3.19401 8.98399 3.57801V7.32201C8.98399 7.69401 9.11599 8.01201 9.37999 8.27601C9.64399 8.54001 9.96199 8.67201 10.334 8.67201H14.078C14.462 8.67201 14.783 8.54001 15.041 8.27601C15.299 8.01201 15.428 7.69401 15.428 7.32201V3.50601C15.428 3.13401 15.299 2.82801 15.041 2.58801C14.783 2.34801 14.462 2.22801 14.078 2.22801ZM14.24 7.25001C14.24 7.28601 14.225 7.31901 14.195 7.34901C14.165 7.37901 14.126 7.39401 14.078 7.39401H10.334C10.298 7.39401 10.265 7.37901 10.235 7.34901C10.205 7.31901 10.19 7.28601 10.19 7.25001V3.50601C10.19 3.45801 10.205 3.41901 10.235 3.38901C10.265 3.35901 10.298 3.34401 10.334 3.34401H14.078C14.126 3.34401 14.165 3.35901 14.195 3.38901C14.225 3.41901 14.24 3.45801 14.24 3.50601V7.25001ZM14.078 10.472H10.334C9.96199 10.472 9.64399 10.601 9.37999 10.859C9.11599 11.117 8.98399 11.438 8.98399 11.822V15.566C8.98399 15.95 9.11599 16.274 9.37999 16.538C9.64399 16.802 9.96199 16.934 10.334 16.934H14.078C14.45 16.934 14.768 16.802 15.032 16.538C15.296 16.274 15.428 15.95 15.428 15.566V11.822C15.428 11.414 15.299 11.087 15.041 10.841C14.783 10.595 14.462 10.472 14.078 10.472ZM14.24 15.494C14.24 15.53 14.225 15.566 14.195 15.602C14.165 15.638 14.126 15.656 14.078 15.656H10.334C10.298 15.656 10.265 15.638 10.235 15.602C10.205 15.566 10.19 15.53 10.19 15.494V11.75C10.19 11.714 10.205 11.681 10.235 11.651C10.265 11.621 10.298 11.606 10.334 11.606H14.078C14.126 11.606 14.165 11.621 14.195 11.651C14.225 11.681 14.24 11.714 14.24 11.75V15.494ZM5.83399 10.472H2.08999C1.71799 10.472 1.39999 10.601 1.13599 10.859C0.87199 11.117 0.73999 11.438 0.73999 11.822V15.566C0.73999 15.95 0.87199 16.274 1.13599 16.538C1.39999 16.802 1.71799 16.934 2.08999 16.934H5.83399C6.20599 16.934 6.52399 16.802 6.78799 16.538C7.05199 16.274 7.18399 15.95 7.18399 15.566V11.822C7.18399 11.414 7.05499 11.087 6.79699 10.841C6.53899 10.595 6.21799 10.472 5.83399 10.472ZM5.97799 15.494C5.97799 15.53 5.96299 15.566 5.93299 15.602C5.90299 15.638 5.86999 15.656 5.83399 15.656H2.08999C2.05399 15.656 2.01799 15.638 1.98199 15.602C1.94599 15.566 1.92799 15.53 1.92799 15.494V11.75C1.92799 11.714 1.94599 11.681 1.98199 11.651C2.01799 11.621 2.05399 11.606 2.08999 11.606H5.83399C5.86999 11.606 5.90299 11.621 5.93299 11.651C5.96299 11.681 5.97799 11.714 5.97799 11.75V15.494Z" fill="#030712"/>
</g>
</g>
<g id="::before">
<mask id="path-5-inside-2_0_1" fill="white">
<path d="M-21 -7C-21 -11.4183 -17.4183 -15 -13 -15H271C275.418 -15 279 -11.4183 279 -7V33H-21V-7Z"/>
</mask>
<path d="M-22 -7C-22 -11.9706 -17.9706 -16 -13 -16H271C275.971 -16 280 -11.9706 280 -7H278C278 -10.866 274.866 -14 271 -14H-13C-16.866 -14 -20 -10.866 -20 -7H-22ZM279 33H-21H279ZM-22 33V-7C-22 -11.9706 -17.9706 -16 -13 -16V-14C-16.866 -14 -20 -10.866 -20 -7V33H-22ZM271 -16C275.971 -16 280 -11.9706 280 -7V33H278V-7C278 -10.866 274.866 -14 271 -14V-16Z" fill="#E5E7EB" mask="url(#path-5-inside-2_0_1)"/>
</g>
</g>
</g>
</g>
</g>
</g>
<defs>
<clipPath id="clip0_0_1">
<rect width="18" height="18" fill="white" transform="matrix(1 0 0 -1 0.589996 18.5)"/>
</clipPath>
</defs>
</svg>
