<svg width="17" height="17" viewBox="0 0 17 17" fill="none" xmlns="http://www.w3.org/2000/svg">
<path d="M8.66816 5.06998C8.01749 5.06998 7.41749 5.23265 6.86816 5.55798C6.31882 5.88331 5.88149 6.32064 5.55616 6.86998C5.23082 7.41931 5.06816 8.01931 5.06816 8.66998C5.06816 9.32064 5.23082 9.92064 5.55616 10.47C5.88149 11.0193 6.31882 11.454 6.86816 11.774C7.41749 12.094 8.01749 12.254 8.66816 12.254C9.31882 12.254 9.91882 12.094 10.4682 11.774C11.0175 11.454 11.4522 11.0193 11.7722 10.47C12.0922 9.92064 12.2522 9.32064 12.2522 8.66998C12.2522 8.01931 12.0922 7.41931 11.7722 6.86998C11.4522 6.32064 11.0175 5.88331 10.4682 5.55798C9.91882 5.23265 9.31882 5.06998 8.66816 5.06998ZM8.66816 11.006C8.24149 11.006 7.84949 10.902 7.49216 10.694C7.13482 10.486 6.85216 10.2006 6.64416 9.83798C6.43616 9.47531 6.33216 9.08598 6.33216 8.66998C6.33216 8.25398 6.43616 7.86465 6.64416 7.50198C6.85216 7.13931 7.13482 6.85398 7.49216 6.64598C7.84949 6.43798 8.24149 6.33398 8.66816 6.33398C9.09482 6.33398 9.48682 6.43798 9.84416 6.64598C10.2015 6.85398 10.4842 7.13664 10.6922 7.49398C10.9002 7.85131 11.0042 8.24331 11.0042 8.66998C11.0042 9.09664 10.9002 9.48865 10.6922 9.84598C10.4842 10.2033 10.1988 10.486 9.83616 10.694C9.47349 10.902 9.08416 11.006 8.66816 11.006ZM13.2442 4.92598C13.2442 5.16064 13.1615 5.36064 12.9962 5.52598C12.8308 5.69131 12.6308 5.77398 12.3962 5.77398C12.1615 5.77398 11.9642 5.69131 11.8042 5.52598C11.6442 5.36064 11.5642 5.16064 11.5642 4.92598C11.5642 4.69131 11.6442 4.49398 11.8042 4.33398C11.9642 4.17398 12.1615 4.09398 12.3962 4.09398C12.6308 4.09398 12.8308 4.17398 12.9962 4.33398C13.1615 4.49398 13.2442 4.69131 13.2442 4.92598ZM15.6122 5.77398C15.5908 5.16598 15.5002 4.63798 15.3402 4.18998C15.1588 3.67798 14.8735 3.22998 14.4842 2.84598C14.0948 2.46198 13.6442 2.17931 13.1322 1.99798C12.6842 1.83798 12.1562 1.74198 11.5482 1.70998C10.9722 1.67798 10.0095 1.66198 8.66016 1.66198C7.31082 1.66198 6.34816 1.67798 5.77216 1.70998C5.15349 1.74198 4.62549 1.83798 4.18816 1.99798C3.67616 2.17931 3.22816 2.46198 2.84416 2.84598C2.46016 3.22998 2.17749 3.67798 1.99616 4.18998C1.82549 4.63798 1.72949 5.16598 1.70816 5.77398C1.67616 6.34998 1.66016 7.31264 1.66016 8.66198C1.66016 10.0113 1.67616 10.974 1.70816 11.55C1.72949 12.158 1.82016 12.686 1.98016 13.134C2.16149 13.646 2.44949 14.0993 2.84416 14.494C3.23882 14.8886 3.69216 15.1713 4.20416 15.342C4.63082 15.502 5.15349 15.5926 5.77216 15.614C6.34816 15.6566 7.31082 15.678 8.66016 15.678C10.0095 15.678 10.9722 15.6566 11.5482 15.614C12.1562 15.5926 12.6842 15.502 13.1322 15.342C13.6442 15.1606 14.0948 14.8753 14.4842 14.486C14.8735 14.0966 15.1588 13.646 15.3402 13.134C15.5002 12.686 15.5908 12.158 15.6122 11.55C15.6442 10.974 15.6602 10.014 15.6602 8.66998C15.6602 7.32598 15.6442 6.36064 15.6122 5.77398ZM14.1242 12.798C14.0068 13.0966 13.8335 13.3633 13.6042 13.598C13.3748 13.8326 13.1055 14.0086 12.7962 14.126C12.4442 14.2646 11.8735 14.3553 11.0842 14.398C10.6362 14.4193 9.99082 14.4246 9.14816 14.414H8.18816C7.34549 14.4246 6.70016 14.4193 6.25216 14.398C5.45216 14.3553 4.88149 14.2646 4.54016 14.126C4.23082 14.0086 3.96149 13.8353 3.73216 13.606C3.50282 13.3766 3.32949 13.1073 3.21216 12.798C3.07349 12.446 2.98282 11.8753 2.94016 11.086C2.91882 10.638 2.91349 9.99264 2.92416 9.14998V8.18998C2.91349 7.34731 2.91882 6.70198 2.94016 6.25398C2.98282 5.45398 3.07349 4.88331 3.21216 4.54198C3.32949 4.23265 3.50282 3.96331 3.73216 3.73398C3.96149 3.50464 4.23082 3.33131 4.54016 3.21398C4.88149 3.07531 5.44682 2.98464 6.23616 2.94198C6.68416 2.92064 7.33482 2.91531 8.18816 2.92598H9.14816C9.99082 2.91531 10.6362 2.92064 11.0842 2.94198C11.8735 2.98464 12.4442 3.07531 12.7962 3.21398C13.1055 3.33131 13.3748 3.50464 13.6042 3.73398C13.8335 3.96331 14.0068 4.23265 14.1242 4.54198C14.2628 4.88331 14.3535 5.44864 14.3962 6.23798C14.4175 6.68598 14.4228 7.33665 14.4122 8.18998V9.14998C14.4228 9.99264 14.4175 10.638 14.3962 11.086C14.3535 11.8753 14.2628 12.446 14.1242 12.798Z" fill="#FD1D1D"/>
</svg>
