<svg width="64" height="16" viewBox="0 0 64 16" fill="none" xmlns="http://www.w3.org/2000/svg">
<g clip-path="url(#clip0_1_5209)">
<mask id="mask0_1_5209" style="mask-type:luminance" maskUnits="userSpaceOnUse" x="0" y="1" width="64" height="15">
<path d="M63.2 1.07031H0.5V15.0703H63.2V1.07031Z" fill="white"/>
</mask>
<g mask="url(#mask0_1_5209)">
<path d="M11.5998 1.07031H8.59971C8.59971 3.57031 7.39971 5.87031 5.39971 7.37031L4.19971 8.37031L8.89971 14.7703H12.7998L8.39971 8.87031C10.4998 6.87031 11.5998 4.07031 11.5998 1.07031Z" fill="black"/>
<path d="M3.79971 1.07031H0.699707V14.7703H3.79971V1.07031Z" fill="black"/>
<path d="M16.6997 1.07031H13.6997V14.7703H16.6997V1.07031Z" fill="black"/>
<path d="M42.5994 5.07031C41.4994 5.07031 40.3994 5.37031 39.6994 6.37031V5.37031H36.8994V14.7703H39.7994V9.77031C39.7994 8.37031 40.7994 7.67031 41.8994 7.67031C43.0994 7.67031 43.8994 8.37031 43.8994 9.77031V14.7703H46.6994V8.77031C46.5994 6.57031 44.8994 5.07031 42.5994 5.07031Z" fill="black"/>
<path d="M25.5998 5.37031V5.97031C24.7998 5.37031 23.7998 5.07031 22.7998 5.07031C19.9998 5.07031 17.7998 7.27031 17.7998 10.0703C17.7998 12.8703 19.9998 15.0703 22.7998 15.0703C23.7998 15.0703 24.7998 14.7703 25.5998 14.1703V14.7703H28.3998V5.37031H25.5998ZM22.9998 12.4703C21.5998 12.4703 20.3998 11.3703 20.3998 10.0703C20.3998 8.77031 21.4998 7.67031 22.9998 7.67031C24.4998 7.67031 25.5998 8.77031 25.5998 10.0703C25.5998 11.3703 24.3998 12.4703 22.9998 12.4703Z" fill="black"/>
<path d="M32.7994 6.57036V5.37036H29.8994V14.7704H32.7994V10.3704C32.7994 8.87036 34.3994 8.07036 35.4994 8.07036V5.37036C34.3994 5.37036 33.3994 5.77036 32.7994 6.57036Z" fill="black"/>
<path d="M55.3996 5.37031V5.97031C54.5996 5.37031 53.6996 5.07031 52.5996 5.07031C49.7996 5.07031 47.5996 7.27031 47.5996 10.0703C47.5996 12.8703 49.7996 15.0703 52.5996 15.0703C53.5996 15.0703 54.5996 14.7703 55.3996 14.1703V14.7703H58.1996V5.37031H55.3996ZM52.8996 12.4703C51.4996 12.4703 50.2996 11.3703 50.2996 10.0703C50.2996 8.77031 51.3996 7.67031 52.8996 7.67031C54.2996 7.67031 55.4996 8.77031 55.4996 10.0703C55.3996 11.3703 54.2996 12.4703 52.8996 12.4703Z" fill="black"/>
<path d="M60.3999 5.57036C60.3999 5.47036 60.2999 5.37036 60.1999 5.37036H59.8999V6.07036H59.9999V5.87036H60.0999L60.2999 6.07036H60.3999L60.2999 5.77036C60.3999 5.77036 60.3999 5.67036 60.3999 5.57036ZM60.1999 5.67036H60.0999V5.47036H60.1999C60.2999 5.47036 60.2999 5.47036 60.2999 5.57036C60.2999 5.67036 60.2999 5.67036 60.1999 5.67036Z" fill="black"/>
<path d="M60.2 5.07031C59.8 5.07031 59.5 5.37031 59.5 5.77031C59.5 6.17031 59.8 6.47031 60.2 6.47031C60.6 6.47031 60.9 6.17031 60.9 5.77031C60.9 5.37031 60.5 5.07031 60.2 5.07031ZM60.2 6.27031C59.9 6.27031 59.7 6.07031 59.7 5.67031C59.7 5.37031 59.9 5.07031 60.2 5.07031C60.5 5.07031 60.7 5.27031 60.7 5.67031C60.7 6.07031 60.4 6.27031 60.2 6.27031Z" fill="black"/>
<path d="M61.3 11.4702C60.3 11.4702 59.5 12.2702 59.5 13.2702C59.5 14.2702 60.3 15.0702 61.3 15.0702C62.3 15.0702 63.1 14.2702 63.1 13.2702C63.1 12.1702 62.3 11.4702 61.3 11.4702Z" fill="black"/>
</g>
</g>
<defs>
<clipPath id="clip0_1_5209">
<rect width="64" height="15" fill="white" transform="translate(0 0.469971)"/>
</clipPath>
</defs>
</svg>
