<svg width="28" height="29" viewBox="0 0 28 29" fill="none" xmlns="http://www.w3.org/2000/svg">
<path d="M22.0842 4.16596H3.43616C2.85749 4.16596 2.31616 4.30596 1.81216 4.58596C1.30816 4.86596 0.906823 5.24862 0.608156 5.73396C0.30949 6.21929 0.160156 6.75129 0.160156 7.32996V21.33C0.160156 21.9086 0.304823 22.45 0.594156 22.954C0.88349 23.458 1.27549 23.8593 1.77016 24.158C2.26482 24.4566 2.82016 24.606 3.43616 24.606H22.0842C22.6628 24.606 23.2042 24.4613 23.7082 24.172C24.2122 23.8826 24.6135 23.4906 24.9122 22.996C25.2108 22.5013 25.3602 21.946 25.3602 21.33V7.32996C25.3602 6.75129 25.2108 6.21929 24.9122 5.73396C24.6135 5.24862 24.2122 4.86596 23.7082 4.58596C23.2042 4.30596 22.6628 4.16596 22.0842 4.16596ZM3.43616 5.92996H22.0842C22.4948 5.92996 22.8308 6.06996 23.0922 6.34996C23.3535 6.62996 23.4842 6.95662 23.4842 7.32996V8.02996L13.4602 14.442C13.2175 14.554 12.9655 14.61 12.7042 14.61C12.4428 14.61 12.1908 14.554 11.9482 14.442L2.03616 8.02996V7.32996C2.03616 6.91929 2.16682 6.58329 2.42816 6.32196C2.68949 6.06062 3.02549 5.92996 3.43616 5.92996ZM22.0842 22.842H3.43616C3.04416 22.842 2.71282 22.6973 2.44216 22.408C2.17149 22.1186 2.03616 21.7966 2.03616 21.442V10.13L11.1362 15.954C11.5282 16.2713 12.0695 16.43 12.7602 16.43C13.4508 16.43 13.9922 16.2713 14.3842 15.954L23.4842 10.13V21.33C23.4842 21.7406 23.3535 22.0953 23.0922 22.394C22.8308 22.6926 22.4948 22.842 22.0842 22.842Z" fill="#111827"/>
</svg>
