<svg width="24" height="16" viewBox="0 0 24 16" fill="none" xmlns="http://www.w3.org/2000/svg">
<g clip-path="url(#clip0_1_5184)">
<mask id="mask0_1_5184" style="mask-type:luminance" maskUnits="userSpaceOnUse" x="0" y="0" width="24" height="16">
<path d="M24 0.670166H0V15.4702H24V0.670166Z" fill="white"/>
</mask>
<g mask="url(#mask0_1_5184)">
<path d="M7.4 15.4702C11.4869 15.4702 14.8 12.1571 14.8 8.07017C14.8 3.98326 11.4869 0.670166 7.4 0.670166C3.31309 0.670166 0 3.98326 0 8.07017C0 12.1571 3.31309 15.4702 7.4 15.4702Z" fill="#DD3D31"/>
<path d="M16.6002 15.4702C20.6871 15.4702 24.0002 12.1571 24.0002 8.07017C24.0002 3.98326 20.6871 0.670166 16.6002 0.670166C12.5133 0.670166 9.2002 3.98326 9.2002 8.07017C9.2002 12.1571 12.5133 15.4702 16.6002 15.4702Z" fill="#EEB046"/>
<path fill-rule="evenodd" clip-rule="evenodd" d="M11.9999 13.97C15.1999 11.47 15.7999 6.77002 13.2999 3.57002C12.8999 3.07002 12.4999 2.67002 11.9999 2.27002C8.7999 4.77002 8.1999 9.47002 10.6999 12.67C11.0999 13.17 11.4999 13.5701 11.9999 13.97Z" fill="#EF7D2F"/>
</g>
</g>
<defs>
<clipPath id="clip0_1_5184">
<rect width="24" height="15" fill="white" transform="translate(0 0.469971)"/>
</clipPath>
</defs>
</svg>
