<svg width="20" height="21" viewBox="0 0 20 21" fill="none" xmlns="http://www.w3.org/2000/svg">
<g clip-path="url(#clip0_1_4073)">
<path d="M9 20.46C7.06 20.46 5.24 19.7 3.86 18.32C3.14 17.6 2.52 16.74 2.12 15.8C1.66 14.78 1.4 13.7 1.4 12.58C1.36 10.04 2.54 7.48 4.82 5.22C5.72 4.3 7.92 2.48 10.4 1.38C13.48 0.0400001 16 0.24 17.72 1.94C18.14 2.36 18.44 3.04 18.54 3.76C18.62 4.38 18.6 5.32 17.98 6.3C16.54 8.62 16 10.48 16.22 12.3C16.5 14.54 15.74 16.74 14.14 18.34C12.76 19.7 10.94 20.46 9 20.46ZM14.1 1.66C13.16 1.66 12.08 1.92 10.88 2.46C8.56 3.48 6.5 5.2 5.64 6.04C1.36 10.34 2.08 14.88 4.68 17.5C7.06 19.88 10.92 19.88 13.32 17.5C14.64 16.18 15.28 14.32 15.06 12.44C14.8 10.34 15.4 8.26 16.98 5.7C17.78 4.38 17.26 3.14 16.88 2.78C16.14 2.04 15.22 1.66 14.1 1.66ZM9 18.12C7.68 18.12 6.44 17.6 5.52 16.66C4.4 15.56 3.76 14.06 3.74 12.56C3.72 11.68 3.92 10.78 4.3 9.9C4.76 8.88 5.48 7.86 6.46 6.88C8.14 5.2 11.62 2.84 14.1 2.84C14.64 2.84 15.08 2.94 15.48 3.16C15.8 3.34 16.04 3.64 16.14 4C16.24 4.36 16.18 4.74 16 5.06L15.98 5.08C14.28 7.84 13.62 10.22 13.9 12.58C14.08 14.1 13.56 15.6 12.48 16.68C11.54 17.6 10.32 18.12 9 18.12ZM14.1 4.02C12.08 4.02 8.84 6.16 7.3 7.7C6.42 8.58 5.78 9.48 5.38 10.38C5.06 11.1 4.9 11.84 4.9 12.54C4.92 13.74 5.44 14.94 6.34 15.84C7.06 16.56 8 16.94 9 16.94C10 16.94 10.94 16.56 11.66 15.84C12.48 15.02 12.88 13.88 12.74 12.72C12.42 10.1 13.14 7.46 14.98 4.46C15.02 4.4 15.02 4.34 15 4.3C15 4.28 14.98 4.22 14.92 4.18C14.7 4.06 14.44 4.02 14.1 4.02ZM9.04 15.16C8 15.16 7.16 14.32 7.16 13.28C7.16 12.24 8 11.4 9.04 11.4C10.08 11.4 10.92 12.24 10.92 13.28C10.92 14.32 10.08 15.16 9.04 15.16ZM9.04 12.58C8.66 12.58 8.34 12.88 8.34 13.28C8.34 13.68 8.66 13.98 9.04 13.98C9.42 13.98 9.76 13.66 9.76 13.28C9.76 12.9 9.44 12.58 9.04 12.58Z" fill="black"/>
</g>
<defs>
<clipPath id="clip0_1_4073">
<rect width="20" height="20" fill="white" transform="translate(0 0.5)"/>
</clipPath>
</defs>
</svg>
