<svg width="53" height="16" viewBox="0 0 53 16" fill="none" xmlns="http://www.w3.org/2000/svg">
<mask id="mask0_1_5192" style="mask-type:luminance" maskUnits="userSpaceOnUse" x="0" y="1" width="53" height="15">
<path d="M52.5 1.07031H0V15.0703H52.5V1.07031Z" fill="white"/>
</mask>
<g mask="url(#mask0_1_5192)">
<path d="M6.63753 1.18286H2.61253C2.33753 1.18286 2.10003 1.38285 2.06253 1.65785L0.437533 11.9578C0.400033 12.1578 0.562533 12.3453 0.775033 12.3453H2.70003C2.97503 12.3453 3.21253 12.1454 3.25003 11.8704L3.68753 9.09535C3.72503 8.82035 3.96253 8.62036 4.23753 8.62036H5.50003C8.15003 8.62036 9.67503 7.34537 10.0751 4.79537C10.2501 3.68287 10.0876 2.80786 9.56253 2.19536C8.98753 1.54536 7.97503 1.18286 6.63753 1.18286ZM7.10003 4.95786C6.87503 6.39536 5.77503 6.39536 4.71253 6.39536H4.10003L4.52503 3.70786C4.55003 3.54536 4.68753 3.42037 4.85003 3.42037H5.12503C5.85003 3.42037 6.53753 3.42036 6.88753 3.83286C7.11253 4.08286 7.17503 4.44536 7.10003 4.95786Z" fill="#283B82"/>
<path d="M18.6503 4.90796H16.7253C16.5628 4.90796 16.4253 5.03297 16.4003 5.19547L16.3128 5.73298L16.1753 5.53296C15.7628 4.93296 14.8253 4.72046 13.9003 4.72046C11.7753 4.72046 9.96281 6.33296 9.60031 8.59546C9.41281 9.72046 9.67531 10.7955 10.3128 11.558C10.9003 12.2455 11.7378 12.5329 12.7378 12.5329C14.4503 12.5329 15.4003 11.433 15.4003 11.433L15.3128 11.9704C15.2753 12.1704 15.4378 12.358 15.6378 12.358H17.3753C17.6503 12.358 17.8878 12.158 17.9253 11.883L18.9628 5.29548C19.0128 5.09548 18.8503 4.90796 18.6503 4.90796ZM15.9628 8.65796C15.7753 9.75796 14.9003 10.4955 13.7878 10.4955C13.2253 10.4955 12.7878 10.3205 12.5003 9.97046C12.2128 9.63296 12.1128 9.15797 12.2003 8.62047C12.3753 7.53297 13.2628 6.77047 14.3628 6.77047C14.9128 6.77047 15.3503 6.95798 15.6503 7.29548C15.9253 7.63298 16.0503 8.12046 15.9628 8.65796Z" fill="#283B82"/>
<path d="M28.8999 4.90771H26.9624C26.7749 4.90771 26.5999 4.99521 26.4999 5.15771L23.8374 9.08272L22.7124 5.30772C22.6374 5.07022 22.4249 4.90771 22.1749 4.90771H20.2749C20.0499 4.90771 19.8874 5.13271 19.9624 5.34521L22.0874 11.5952L20.0874 14.4202C19.9249 14.6452 20.0874 14.9452 20.3624 14.9452H22.2999C22.4874 14.9452 22.6499 14.8577 22.7624 14.7077L29.1999 5.42024C29.3249 5.20774 29.1624 4.90771 28.8999 4.90771Z" fill="#283B82"/>
<path d="M35.3001 1.18286H31.2751C31.0001 1.18286 30.7626 1.38285 30.7251 1.65785L29.1001 11.9578C29.0626 12.1578 29.2251 12.3453 29.4251 12.3453H31.5001C31.6876 12.3453 31.8501 12.2078 31.8876 12.0203L32.3501 9.09535C32.3876 8.82035 32.6251 8.62036 32.9001 8.62036H34.1751C36.8251 8.62036 38.3501 7.34537 38.7501 4.79537C38.9251 3.68287 38.7626 2.80786 38.2376 2.19536C37.6626 1.54536 36.6501 1.18286 35.3001 1.18286ZM35.7626 4.95786C35.5376 6.39536 34.4376 6.39536 33.3751 6.39536H32.7751L33.2001 3.70786C33.2251 3.54536 33.3626 3.42037 33.5251 3.42037H33.8001C34.5251 3.42037 35.2126 3.42036 35.5626 3.83286C35.7751 4.08286 35.8376 4.44536 35.7626 4.95786Z" fill="#469BDB"/>
<path d="M47.3124 4.90796H45.3874C45.2249 4.90796 45.0874 5.03297 45.0624 5.19547L44.9749 5.73298L44.8374 5.53296C44.4249 4.93296 43.4874 4.72046 42.5624 4.72046C40.4374 4.72046 38.6249 6.33296 38.2624 8.59546C38.0749 9.72046 38.3374 10.7955 38.9749 11.558C39.5624 12.2455 40.3999 12.5329 41.3999 12.5329C43.1124 12.5329 44.0624 11.433 44.0624 11.433L43.9749 11.9704C43.9374 12.1704 44.0999 12.358 44.3124 12.358H46.0499C46.3249 12.358 46.5624 12.158 46.5999 11.883L47.6374 5.29548C47.6749 5.09548 47.5124 4.90796 47.3124 4.90796ZM44.6249 8.65796C44.4374 9.75796 43.5624 10.4955 42.4499 10.4955C41.8874 10.4955 41.4499 10.3205 41.1624 9.97046C40.8749 9.63296 40.7749 9.15797 40.8624 8.62047C41.0374 7.53297 41.9249 6.77047 43.0249 6.77047C43.5749 6.77047 44.0124 6.95798 44.3124 7.29548C44.5999 7.63298 44.7124 8.12046 44.6249 8.65796Z" fill="#469BDB"/>
<path d="M49.5749 1.47019L47.9248 11.9702C47.8873 12.1702 48.0498 12.3577 48.2498 12.3577H49.9123C50.1873 12.3577 50.4249 12.1577 50.4624 11.8827L52.0874 1.5827C52.1249 1.38269 51.9624 1.1952 51.7624 1.1952H49.8999C49.7499 1.1827 49.6124 1.30769 49.5749 1.47019Z" fill="#469BDB"/>
</g>
</svg>
