<svg width="17" height="17" viewBox="0 0 17 17" fill="none" xmlns="http://www.w3.org/2000/svg">
<g clip-path="url(#clip0_1_3331)">
<path d="M10.162 7.78595H6.01798V3.57795C6.01798 3.43928 5.96998 3.31662 5.87398 3.20995C5.77798 3.10328 5.64998 3.04995 5.48998 3.04995C5.32998 3.04995 5.20198 3.10328 5.10598 3.20995C5.00998 3.31662 4.96198 3.43928 4.96198 3.57795V7.72195H0.817978C0.679311 7.72195 0.556645 7.76995 0.449978 7.86595C0.343311 7.96195 0.289978 8.09262 0.289978 8.25795C0.289978 8.42328 0.337978 8.55128 0.433978 8.64195C0.529978 8.73262 0.657978 8.77795 0.817978 8.77795H4.96198V12.922C4.96198 13.0606 5.00998 13.1833 5.10598 13.29C5.20198 13.3966 5.33264 13.45 5.49798 13.45C5.66331 13.45 5.79131 13.402 5.88198 13.306C5.97264 13.21 6.01798 13.082 6.01798 12.922V8.77795H10.162C10.3006 8.77795 10.4233 8.72995 10.53 8.63395C10.6366 8.53795 10.69 8.40995 10.69 8.24995C10.69 8.08995 10.6393 7.97262 10.538 7.89795C10.4366 7.82328 10.3113 7.78595 10.162 7.78595Z" fill="#634C9F"/>
</g>
<defs>
<clipPath id="clip0_1_3331">
<rect width="16" height="16" fill="white" transform="matrix(1 0 0 -1 0.159973 16.25)"/>
</clipPath>
</defs>
</svg>
