<svg width="20" height="21" viewBox="0 0 20 21" fill="none" xmlns="http://www.w3.org/2000/svg">
<g clip-path="url(#clip0_1_4153)">
<path d="M18.7368 19.818L17.1646 10.3778C16.9377 9.01812 15.7722 8.03125 14.3932 8.03125C13.3321 8.03125 12.4687 7.16793 12.4687 6.10676V2.96875C12.4687 1.6075 11.3613 0.5 9.99999 0.5C8.6387 0.5 7.53124 1.6075 7.53124 2.96875V6.10676C7.53124 7.16793 6.66792 8.03125 5.60675 8.03125C4.2278 8.03125 3.06226 9.01813 2.83523 10.3786L1.26316 19.818C1.23491 19.9879 1.28284 20.1615 1.39417 20.2929C1.50554 20.4243 1.66898 20.5 1.84116 20.5H18.1588C18.331 20.5 18.4945 20.4243 18.6058 20.2929C18.7171 20.1615 18.7651 19.9879 18.7368 19.818ZM3.99124 10.5707C4.12351 9.77828 4.80292 9.20312 5.60675 9.20312C7.31409 9.20312 8.70312 7.8141 8.70312 6.10676V2.96875C8.70312 2.25363 9.28491 1.67188 9.99999 1.67188C10.7151 1.67188 11.2969 2.25367 11.2969 2.96875V6.10676C11.2969 7.8141 12.6859 9.20312 14.3932 9.20312C15.1971 9.20312 15.8765 9.77828 16.0086 10.57C16.055 10.8503 16.1039 11.1451 16.153 11.4414C15.3953 10.86 14.4632 10.5417 13.5052 10.5417H6.49483C5.53679 10.5417 4.60468 10.86 3.84698 11.4414C3.89605 11.1454 3.94487 10.8508 3.99124 10.5707ZM3.36058 14.37C3.61597 12.8307 4.93409 11.7136 6.4948 11.7136H13.5051C15.0659 11.7136 16.384 12.8307 16.6396 14.3714C16.7942 15.2898 16.9489 16.2145 17.0496 16.8177H2.9503C3.05108 16.2143 3.20585 15.2893 3.36058 14.37ZM2.53253 19.3281L2.75503 17.9896H17.2449L17.4675 19.3281H2.53253Z" fill="black"/>
</g>
<defs>
<clipPath id="clip0_1_4153">
<rect width="20" height="20" fill="white" transform="translate(0 0.5)"/>
</clipPath>
</defs>
</svg>
