<svg width="20" height="21" viewBox="0 0 20 21" fill="none" xmlns="http://www.w3.org/2000/svg">
<g clip-path="url(#clip0_1_4132)">
<path d="M18.4105 14.5677L16.3791 13.3949L18.1395 12.3569C18.4642 12.1654 18.5722 11.747 18.3807 11.4223C18.1893 11.0977 17.771 10.9897 17.4462 11.1811L15.0212 12.611L11.3649 10.5L15.0206 8.38931L17.4463 9.819C17.555 9.88316 17.6744 9.91355 17.7922 9.91355C18.0258 9.91355 18.2534 9.79343 18.3807 9.57749C18.5721 9.2528 18.464 8.83439 18.1393 8.64292L16.3787 7.60526L18.4105 6.43218C18.7369 6.24372 18.8488 5.8263 18.6603 5.49989C18.4718 5.17338 18.0544 5.06154 17.728 5.25009L15.6966 6.42299L15.6781 4.37904C15.6748 4.00212 15.3656 3.69755 14.9895 3.70273C14.6126 3.7061 14.3098 4.01441 14.3132 4.39133L14.3386 7.20695L10.6825 9.31787V5.09639L13.1338 3.71101C13.4619 3.52556 13.5776 3.10923 13.3921 2.781C13.2067 2.45285 12.7903 2.3371 12.4621 2.52265L10.6825 3.52847V1.1825C10.6825 0.805577 10.377 0.5 10 0.5C9.62311 0.5 9.31754 0.805577 9.31754 1.1825V3.52847L7.53795 2.52274C7.20962 2.33719 6.79348 2.45285 6.60793 2.78109C6.42247 3.10923 6.53813 3.52565 6.86628 3.71111L9.31745 5.09648V9.31787L5.66135 7.20695L5.68674 4.39133C5.6902 4.01441 5.38735 3.7061 5.01043 3.70273C5.00834 3.70273 5.00634 3.70273 5.00415 3.70273C4.63014 3.70273 4.3252 4.00422 4.32184 4.37913L4.30336 6.42299L2.27198 5.25009C1.94556 5.06154 1.52815 5.17347 1.33969 5.49989C1.15123 5.8263 1.26307 6.24372 1.58948 6.43218L3.62123 7.60526L1.8603 8.64311C1.53561 8.83448 1.4275 9.25289 1.61887 9.57767C1.74618 9.79361 1.97377 9.91373 2.20755 9.91373C2.3253 9.91373 2.4446 9.88325 2.55344 9.81919L4.9794 8.38949L8.63513 10.5001L4.97876 12.6111L2.55344 11.181C2.22894 10.9896 1.81034 11.0975 1.61887 11.4222C1.42741 11.7469 1.53543 12.1653 1.86011 12.3567L3.62078 13.3948L1.58939 14.5676C1.26297 14.7561 1.15114 15.1735 1.3396 15.4999C1.46599 15.7189 1.6954 15.8413 1.93128 15.8413C2.04703 15.8413 2.16442 15.8118 2.27189 15.7497L4.30327 14.5768L4.32175 16.6209C4.32511 16.9957 4.63005 17.2973 5.00406 17.2973C5.00615 17.2973 5.00825 17.2973 5.01034 17.2972C5.38726 17.2938 5.69011 16.9855 5.68665 16.6086L5.66126 13.7929L9.31745 11.6819V15.9035L6.86628 17.2889C6.53813 17.4744 6.42247 17.8907 6.60793 18.2189C6.73342 18.441 6.96465 18.5657 7.2027 18.5657C7.31645 18.5657 7.43184 18.5372 7.53795 18.4773L9.31754 17.4715V19.8175C9.31754 20.1944 9.62311 20.5 10 20.5C10.377 20.5 10.6825 20.1944 10.6825 19.8175V17.4715L12.4621 18.4773C12.5682 18.5372 12.6835 18.5657 12.7974 18.5657C13.0354 18.5657 13.2667 18.441 13.3921 18.2189C13.5776 17.8908 13.4619 17.4744 13.1338 17.2889L10.6825 15.9035V11.682L14.3386 13.7929L14.3126 16.6085C14.3091 16.9854 14.6118 17.2938 14.9887 17.2973C14.9909 17.2974 14.993 17.2974 14.9952 17.2974C15.3691 17.2974 15.674 16.9959 15.6775 16.6211L15.6964 14.5768L17.7281 15.7498C17.8356 15.8119 17.9529 15.8414 18.0687 15.8414C18.3046 15.8414 18.534 15.7189 18.6604 15.5C18.8488 15.1736 18.737 14.7562 18.4105 14.5677Z" fill="black"/>
</g>
<defs>
<clipPath id="clip0_1_4132">
<rect width="20" height="20" fill="white" transform="translate(0 0.5)"/>
</clipPath>
</defs>
</svg>
