<svg width="14" height="15" viewBox="0 0 14 15" fill="none" xmlns="http://www.w3.org/2000/svg">
<g clip-path="url(#clip0_1_3016)">
<path d="M12.5008 9.64258L11.168 8.88466L12.3178 8.2052C12.5269 8.07453 12.6053 7.80013 12.4746 7.59106C12.357 7.382 12.0827 7.3036 11.8605 7.43426L10.2794 8.362L7.88824 6.99L10.2794 5.60493L11.8605 6.54573C11.9389 6.58493 12.0173 6.61106 12.0957 6.61106C12.2394 6.61106 12.3962 6.53266 12.4746 6.38893C12.6053 6.17986 12.5269 5.90546 12.3178 5.7748L11.168 5.09533L12.5008 4.33746C12.7098 4.2068 12.7752 3.9324 12.6576 3.72333C12.54 3.51426 12.2656 3.43586 12.0435 3.55346L10.7237 4.3244L10.7107 2.9916C10.7107 2.74333 10.5016 2.54733 10.2664 2.54733C10.0181 2.54733 9.82212 2.7564 9.82212 3.00466L9.83518 4.834L7.44397 6.21906V3.462L9.05117 2.5604C9.26024 2.42973 9.33864 2.15533 9.22104 1.94626C9.09037 1.7372 8.82904 1.6588 8.60691 1.7764L7.44397 2.42973V0.900932C7.44397 0.652665 7.24797 0.456665 6.99971 0.456665C6.75144 0.456665 6.55544 0.652665 6.55544 0.900932V2.42973L5.39251 1.7764C5.18344 1.6588 4.90904 1.7372 4.77837 1.94626C4.66077 2.15533 4.73917 2.42973 4.94824 2.5604L6.55544 3.462V6.21906L4.16424 4.834L4.17731 3.00466C4.19037 2.7564 3.98131 2.54733 3.74611 2.54733C3.73304 2.54733 3.73304 2.54733 3.73304 2.54733C3.49784 2.54733 3.28877 2.74333 3.28877 2.9916L3.27571 4.3244L1.95597 3.55346C1.73384 3.43586 1.45944 3.51426 1.34184 3.72333C1.22424 3.9324 1.28957 4.2068 1.51171 4.33746L2.83144 5.09533L1.68157 5.7748C1.47251 5.90546 1.39411 6.17986 1.52477 6.38893C1.60317 6.53266 1.75997 6.61106 1.90371 6.61106C1.98211 6.61106 2.06051 6.58493 2.13891 6.54573L3.71997 5.60493L6.11117 6.99L3.71997 8.37506L2.13891 7.43426C1.91677 7.3036 1.65544 7.382 1.52477 7.59106C1.39411 7.80013 1.47251 8.07453 1.68157 8.2052L2.83144 8.88466L1.51171 9.64258C1.28957 9.77324 1.22424 10.0476 1.34184 10.2567C1.42024 10.4004 1.57704 10.4788 1.73384 10.4788C1.79917 10.4788 1.87757 10.4658 1.95597 10.4135L3.27571 9.65564L3.28877 10.9884C3.28877 11.2367 3.49784 11.4327 3.73304 11.4327C3.73304 11.4327 3.73304 11.4327 3.74611 11.4327C3.98131 11.4327 4.19037 11.2236 4.17731 10.9754L4.16424 9.146L6.55544 7.76093V10.518L4.94824 11.4196C4.73917 11.5503 4.66077 11.8247 4.77837 12.0338C4.86984 12.1775 5.01357 12.2559 5.17037 12.2559C5.24877 12.2559 5.32717 12.2428 5.39251 12.2036L6.55544 11.5503V13.0791C6.55544 13.3274 6.75144 13.5234 6.99971 13.5234C7.24797 13.5234 7.44397 13.3274 7.44397 13.0791V11.5503L8.60691 12.2036C8.67224 12.2428 8.75064 12.2559 8.82904 12.2559C8.98584 12.2559 9.12957 12.1775 9.22104 12.0338C9.33864 11.8247 9.26024 11.5503 9.05117 11.4196L7.44397 10.518V7.76093L9.83518 9.146L9.82212 10.9754C9.82212 11.2236 10.0181 11.4327 10.2533 11.4327C10.2664 11.4327 10.2664 11.4327 10.2664 11.4327C10.5146 11.4327 10.7107 11.2367 10.7107 10.9884L10.7237 9.65564L12.0435 10.4135C12.1219 10.4658 12.2002 10.4788 12.2656 10.4788C12.4224 10.4788 12.5792 10.4004 12.6576 10.2567C12.7752 10.0476 12.7098 9.77324 12.5008 9.64258Z" fill="#0891B2"/>
</g>
<defs>
<clipPath id="clip0_1_3016">
<rect width="14" height="14" fill="white" transform="translate(0 0.27002)"/>
</clipPath>
</defs>
</svg>
