<svg width="20" height="21" viewBox="0 0 20 21" fill="none" xmlns="http://www.w3.org/2000/svg">
<g clip-path="url(#clip0_1_4095)">
<path d="M16.48 2.8C14.74 1.32 12.44 0.5 9.99999 0.5C7.55999 0.5 5.25999 1.32 3.51999 2.8C1.75999 4.32 0.799988 6.34 0.799988 8.48C0.799988 10.26 1.45999 11.42 2.55999 12.72C3.27999 13.58 3.63999 14.2 3.63999 15.3V18.42C3.63999 19.56 4.57999 20.5 5.71999 20.5H14.28C15.42 20.5 16.36 19.56 16.36 18.42V15.3C16.36 14.2 16.72 13.58 17.44 12.72C18.54 11.42 19.2 10.26 19.2 8.48C19.2 6.34 18.24 4.32 16.48 2.8ZM16.54 11.94C15.66 12.98 15.16 13.86 15.16 15.3V18.42C15.16 18.92 14.76 19.32 14.28 19.32H5.71999C5.23999 19.32 4.83999 18.92 4.83999 18.42V15.3C4.83999 13.86 4.33999 12.98 3.45999 11.94C2.49999 10.8 1.97999 9.92 1.97999 8.48C1.97999 4.74 5.57999 1.68 9.99999 1.68C14.42 1.68 18.02 4.74 18.02 8.48C18.02 9.92 17.5 10.8 16.54 11.94ZM6.93999 4.84C5.71999 4.84 4.71999 5.82 4.71999 7.04C4.71999 8.28 5.71999 9.26 6.93999 9.26C8.15999 9.26 9.15999 8.28 9.15999 7.04C9.15999 5.8 8.15999 4.84 6.93999 4.84ZM6.93999 8.08C6.37999 8.08 5.91999 7.62 5.91999 7.04C5.91999 6.48 6.37999 6.02 6.93999 6.02C7.49999 6.02 7.95999 6.48 7.95999 7.04C7.95999 7.62 7.49999 8.08 6.93999 8.08ZM13.42 4.74C13.1 4.74 12.8 5 12.82 5.34C12.84 5.66 13.08 5.92 13.42 5.92C13.72 5.92 14.02 5.66 14 5.34C14 5 13.74 4.74 13.42 4.74ZM8.03999 10.96C7.71999 10.96 7.41999 11.24 7.43999 11.56C7.45999 11.88 7.69999 12.16 8.03999 12.16C8.35999 12.16 8.63999 11.88 8.63999 11.56C8.61999 11.24 8.37999 10.96 8.03999 10.96ZM9.99999 14.04C8.87999 14.04 7.95999 14.96 7.95999 16.08C7.95999 17.2 8.87999 18.12 9.99999 18.12C11.12 18.12 12.04 17.2 12.04 16.08C12.04 14.96 11.12 14.04 9.99999 14.04ZM9.99999 16.94C9.51999 16.94 9.13999 16.56 9.13999 16.08C9.13999 15.6 9.51999 15.22 9.99999 15.22C10.48 15.22 10.86 15.6 10.86 16.08C10.86 16.56 10.48 16.94 9.99999 16.94ZM13.16 7.8C12.06 7.8 11.16 8.7 11.16 9.8C11.16 10.9 12.06 11.8 13.16 11.8C14.26 11.8 15.16 10.92 15.16 9.8C15.16 8.68 14.26 7.8 13.16 7.8ZM13.16 10.62C12.72 10.62 12.34 10.26 12.34 9.8C12.34 9.36 12.72 9 13.16 9C13.6 9 13.96 9.36 13.96 9.8C13.96 10.26 13.6 10.62 13.16 10.62Z" fill="black"/>
</g>
<defs>
<clipPath id="clip0_1_4095">
<rect width="20" height="20" fill="white" transform="translate(0 0.5)"/>
</clipPath>
</defs>
</svg>
