<svg width="20" height="21" viewBox="0 0 20 21" fill="none" xmlns="http://www.w3.org/2000/svg">
<g clip-path="url(#clip0_1_4160)">
<path d="M18.96 3.76C18.96 3.04 18.46 2.04 16.1 1.3C14.46 0.78 12.3 0.5 10 0.5C7.70001 0.5 5.54001 0.78 3.90001 1.3C1.54001 2.04 1.04001 3.04 1.04001 3.76V17.2C1.04001 19.36 5.54001 20.5 10 20.5C14.46 20.5 18.96 19.36 18.96 17.2V3.76ZM17.78 17.2C17.78 17.56 17.16 18.1 15.74 18.56C15.48 18.64 15.2 18.72 14.9 18.8V17.96C14.9 17.62 14.64 17.36 14.3 17.36C13.96 17.36 13.72 17.62 13.72 17.96V19.04C12.58 19.22 11.32 19.32 10 19.32C7.82001 19.32 5.78001 19.06 4.26001 18.56C2.86001 18.1 2.22001 17.56 2.22001 17.2V5.48C3.84001 6.5 6.94001 7.04 10 7.04C11.28 7.04 12.54 6.96 13.72 6.78V7.64C13.72 7.98 13.98 8.24 14.3 8.24C14.62 8.24 14.9 7.98 14.9 7.64V6.56C16.06 6.3 17.06 5.94 17.78 5.48V17.2ZM15.74 5.1C14.22 5.6 12.18 5.86 10 5.86C7.82001 5.86 5.78001 5.6 4.26001 5.1C2.86001 4.64 2.22001 4.1 2.22001 3.76C2.22001 3.42 2.84001 2.86 4.26001 2.42C5.78001 1.94 7.82001 1.68 10 1.68C12.18 1.68 14.22 1.94 15.74 2.42C17.16 2.86 17.78 3.42 17.78 3.76C17.78 4.1 17.16 4.64 15.74 5.1ZM12.46 2.58C11.8 2.42 10.92 2.32 10 2.32C9.08001 2.32 8.20001 2.42 7.54001 2.58C6.62001 2.82 6.16001 3.22 6.16001 3.76C6.16001 4.3 6.62001 4.7 7.54001 4.96C8.20001 5.12 9.08001 5.22 10 5.22C10.92 5.22 11.8 5.12 12.46 4.96C13.38 4.7 13.84 4.3 13.84 3.76C13.84 3.22 13.38 2.82 12.46 2.58ZM10 4.04C8.94001 4.04 8.14001 3.9 7.68001 3.76C8.14001 3.64 8.94001 3.5 10 3.5C11.08 3.5 11.86 3.64 12.32 3.76C11.86 3.9 11.08 4.04 10 4.04ZM14.3 9.44C13.98 9.44 13.72 9.7 13.72 10.04V11.6C13.72 11.94 13.98 12.2 14.3 12.2C14.62 12.2 14.9 11.94 14.9 11.6V10.04C14.9 9.7 14.64 9.44 14.3 9.44ZM14.3 13.4C13.98 13.4 13.72 13.66 13.72 14V15.56C13.72 15.9 13.98 16.16 14.3 16.16C14.62 16.16 14.9 15.9 14.9 15.56V14C14.9 13.66 14.64 13.4 14.3 13.4Z" fill="black"/>
</g>
<defs>
<clipPath id="clip0_1_4160">
<rect width="20" height="20" fill="white" transform="translate(0 0.5)"/>
</clipPath>
</defs>
</svg>
