<svg width="36" height="14" viewBox="0 0 36 14" fill="none" xmlns="http://www.w3.org/2000/svg">
<mask id="mask0_1_5178" style="mask-type:luminance" maskUnits="userSpaceOnUse" x="0" y="1" width="36" height="13">
<path d="M36 1.07031H0V13.0703H36V1.07031Z" fill="white"/>
</mask>
<g mask="url(#mask0_1_5178)">
<path d="M31.5998 5.37017L32.1998 8.57017H29.7998L30.9998 5.47017L31.1998 4.87017L31.2998 4.37017C31.2998 4.47017 31.5998 5.37017 31.5998 5.37017ZM8.89981 12.4702L13.2998 1.57017H10.2998L7.59981 9.07017L7.29981 7.47017L6.29981 2.47017C6.19981 1.87017 5.69981 1.47017 4.89981 1.47017H0.399805L0.299805 1.67017C1.49981 1.87017 2.39981 2.27017 3.29981 2.87017L5.89981 12.5702H8.99981L8.89981 12.4702ZM15.5998 12.4702L17.3998 1.57017H14.5998L12.7998 12.6702H15.5998V12.4702ZM25.6998 8.97017C25.6998 7.77017 24.8998 6.77017 23.2998 5.87017C22.0998 5.37017 21.4998 4.97017 21.4998 4.57017C21.4998 3.97017 22.0998 3.67017 23.2998 3.67017C23.9998 3.67017 24.6998 3.67017 25.2998 4.17017H25.6998L25.9998 1.67017C25.0998 1.27017 24.2998 1.17017 23.3998 1.17017C22.4998 1.17017 21.6998 1.37017 20.9998 1.67017C20.2998 1.97017 19.6998 2.37017 19.1998 2.97017C18.7998 3.57017 18.5998 4.17017 18.5998 4.87017C18.5998 6.07017 19.3998 7.07017 21.1998 7.97017C22.0998 8.47017 22.5998 8.87016 22.5998 9.27016C22.5998 9.97016 21.9998 10.4702 20.8998 10.4702C19.9998 10.4702 18.9998 10.2702 18.1998 9.87017L17.7998 9.67017L17.2998 12.0702C18.2998 12.4702 19.3998 12.7702 20.4998 12.7702C21.7998 12.8702 22.9998 12.4702 23.9998 11.8702C25.1998 11.0702 25.6998 10.0702 25.6998 8.97017ZM35.6998 12.4702L33.3998 1.57017H31.1998C30.4998 1.57017 29.9998 1.77017 29.7998 2.47017L25.4998 12.6702H28.4998L28.9998 11.0702H32.7998L33.1998 12.7702H35.7998V12.4702H35.6998Z" fill="url(#paint0_linear_1_5178)"/>
</g>
<defs>
<linearGradient id="paint0_linear_1_5178" x1="1.58171" y1="6.97857" x2="35.2447" y2="6.97857" gradientUnits="userSpaceOnUse">
<stop stop-color="#2C3572"/>
<stop offset="1" stop-color="#3C62AB"/>
</linearGradient>
</defs>
</svg>
