<svg width="20" height="21" viewBox="0 0 20 21" fill="none" xmlns="http://www.w3.org/2000/svg">
<g clip-path="url(#clip0_1_4146)">
<path d="M15.34 12.76H12.7C11.64 12.76 10.68 13.2 9.97999 13.88V11.64H11.68C13.6 11.64 15.16 10.08 15.16 8.16C15.16 7.84 14.9 7.58 14.56 7.58H12.28C11.38 7.58 10.58 7.92 9.97999 8.46V7.04L10.56 6.46C11.22 5.78 11.6 4.88 11.6 3.94C11.6 2.98 11.22 2.1 10.56 1.42L9.79999 0.68C9.57999 0.44 9.19999 0.44 8.97999 0.68L8.21999 1.42C7.53999 2.1 7.17999 2.98 7.17999 3.94C7.17999 4.88 7.53999 5.78 8.21999 6.46L8.79998 7.04V8.46C8.17999 7.92 7.37998 7.58 6.49998 7.58H4.19999C3.87999 7.58 3.61999 7.84 3.61999 8.16C3.61999 10.08 5.17999 11.64 7.07999 11.64H8.79998V13.88C8.09999 13.2 7.13999 12.76 6.07999 12.76H3.43999C3.11999 12.76 2.85999 13.02 2.85999 13.36C2.85999 15.5 4.59999 17.24 6.73999 17.24H8.79998V18.68C8.79998 19 9.05999 19.26 9.37999 19.26C9.69999 19.26 9.97999 19 9.97999 18.68V17.24H12.02C14.18 17.24 15.92 15.5 15.92 13.36C15.92 13.02 15.66 12.76 15.34 12.76ZM12.28 8.76H13.9C13.64 9.74 12.74 10.46 11.68 10.46H10.04C10.3 9.48 11.2 8.76 12.28 8.76ZM7.07999 10.46C6.01999 10.46 5.11999 9.74 4.85999 8.76H6.49998C7.55999 8.76 8.45998 9.48 8.71999 10.46H7.07999ZM6.73999 16.08C5.43999 16.08 4.35999 15.16 4.07999 13.94H6.07999C7.37998 13.94 8.45999 14.86 8.73999 16.08H6.73999ZM9.37999 5.88C9.19999 5.88 8.33998 5.08 8.33998 3.94C8.33998 2.84 8.99999 2.3 9.37999 1.92C9.75999 2.28 10.42 2.84 10.42 3.94C10.42 5.06 9.57999 5.88 9.37999 5.88ZM12.02 16.08H10.04C10.3 14.86 11.4 13.94 12.7 13.94H14.68C14.42 15.16 13.32 16.08 12.02 16.08Z" fill="black"/>
</g>
<defs>
<clipPath id="clip0_1_4146">
<rect width="20" height="20" fill="white" transform="translate(0 0.5)"/>
</clipPath>
</defs>
</svg>
